<?xml version="1.0" encoding="UTF-8"?>
<svg id="Layer_2" data-name="Layer 2" xmlns="http://www.w3.org/2000/svg" viewBox="0 0 231 291">
  <g id="Layer_1-2" data-name="Layer 1">
    <g>
      <path d="M215.54,76c9.83,11.62,15.46,25.11,15.46,39.5,0,43.63-51.71,79-115.5,79S0,159.13,0,115.5c0-14.39,5.63-27.88,15.46-39.5,19.97,23.61,57.29,39.5,100.04,39.5s80.07-15.89,100.04-39.5Z"/>
      <path d="M115.5,291C51.71,291,0,255.63,0,212,0,197.61,5.63,184.12,15.46,172.5c19.97,23.61,57.29,39.5,100.04,39.5s80.07-15.89,100.04-39.5c9.83,11.62,15.46,25.11,15.46,39.5,0,43.63-51.71,79-115.5,79Z"/>
      <circle cx="115.5" cy="51.5" r="51.5"/>
    </g>
  </g>
</svg>