<?xml version="1.0" encoding="UTF-8"?>
<svg id="Layer_2" data-name="Layer 2" xmlns="http://www.w3.org/2000/svg" viewBox="0 0 408.98 388.38">
  <defs>
    <style>
      .cls-1 {
        font-family: ArtheadRegular, Arthead;
        font-size: 352.43px;
      }
    </style>
  </defs>
  <g id="Layer_1-2" data-name="Layer 1">
    <g>
      <path d="M309.09,118.36c13.34,0,25.81,.63,37.06,1.88,35.52,3.94,57.25,13.79,59.61,27.03,2.36,13.24-14.62,29.99-46.59,45.97-33.48,16.73-79.51,30.86-129.59,39.8-34.24,6.11-68.23,9.33-98.28,9.33-13.34,0-25.82-.63-37.07-1.88-35.52-3.94-57.25-13.79-59.61-27.03s14.62-29.99,46.59-45.97c33.48-16.73,79.51-30.86,129.59-39.8,34.24-6.11,68.23-9.33,98.29-9.33h0m0-3c-29.33,0-63.18,3.03-98.81,9.38-52.06,9.28-98.08,23.92-130.4,40.07-32.32,16.15-50.94,33.82-48.2,49.18,2.74,15.36,26.32,25.5,62.23,29.48,11.33,1.26,23.88,1.9,37.4,1.9,29.33,0,63.18-3.03,98.81-9.38,52.06-9.28,98.08-23.92,130.4-40.07,32.32-16.15,50.94-33.82,48.2-49.18-2.74-15.36-26.32-25.5-62.23-29.48-11.33-1.26-23.88-1.9-37.4-1.9h0Z"/>
      <text class="cls-1" transform="translate(0 299.56)"><tspan x="0" y="0">JY</tspan></text>
    </g>
  </g>
</svg>