<?xml version="1.0" encoding="UTF-8"?>
<svg id="Layer_2" data-name="Layer 2" xmlns="http://www.w3.org/2000/svg" viewBox="0 0 158.5 142.99">
  <defs>
    <style>
      .cls-1 {
        font-family: AvenirLTStd-Book, 'Avenir LT Std';
        font-size: 127.9px;
      }
    </style>
  </defs>
  <g id="Layer_1-2" data-name="Layer 1">
    <text class="cls-1" transform="translate(0 106.16) scale(1.16 1)"><tspan x="0" y="0">JY</tspan></text>
    <path d="M81.16,49.22c-37.19,9.9-65.35,25.4-62.9,34.61,2.45,9.22,34.59,8.66,71.78-1.24,37.19-9.9,65.35-25.4,62.9-34.61-2.45-9.22-34.59-8.66-71.78,1.24Zm8.1,30.43c-33.38,8.89-62.22,9.38-64.43,1.11-2.2-8.27,23.07-22.18,56.45-31.07,33.38-8.89,62.22-9.38,64.43-1.11,2.2,8.27-23.07,22.18-56.45,31.07Z"/>
    <path d="M84.51,54.79c-1.82,6.79-4.14,6.79-5.96,0,1.82,6.79-.19,7.95-5.16,2.98,4.97,4.97,3.82,6.98-2.98,5.16,6.79,1.82,6.79,4.14,0,5.96,6.79-1.82,7.95,.19,2.98,5.16,4.97-4.97,6.98-3.82,5.16,2.98,1.82-6.79,4.14-6.79,5.96,0-1.82-6.79,.19-7.95,5.16-2.98-4.97-4.97-3.82-6.98,2.98-5.16-6.79-1.82-6.79-4.14,0-5.96-6.79,1.82-7.95-.19-2.98-5.16-4.97,4.97-6.98,3.82-5.16-2.98Z"/>
  </g>
</svg>