<?xml version="1.0" encoding="UTF-8"?>
<svg id="Layer_2" data-name="Layer 2" xmlns="http://www.w3.org/2000/svg" viewBox="0 0 171.76 143.03">
  <defs>
    <style>
      .cls-1, .cls-2 {
        fill: #fff;
      }

      .cls-2 {
        font-family: AvenirLTStd-Book, 'Avenir LT Std';
        font-size: 127.9px;
      }
    </style>
  </defs>
  <g id="Layer_1-2" data-name="Layer 1">
    <rect width="171.76" height="121.42"/>
    <text class="cls-2" transform="translate(4.17 106.2) scale(1.16 1)"><tspan x="0" y="0">JY</tspan></text>
    <path class="cls-1" d="M85.33,49.26c-37.19,9.9-65.35,25.4-62.9,34.61s34.59,8.66,71.78-1.24c37.19-9.9,65.35-25.4,62.9-34.61-2.45-9.22-34.59-8.66-71.78,1.24Zm8.1,30.43c-33.38,8.89-62.22,9.38-64.43,1.11-2.2-8.27,23.07-22.18,56.45-31.07,33.38-8.89,62.22-9.38,64.43-1.11,2.2,8.27-23.07,22.18-56.45,31.07Z"/>
    <path class="cls-1" d="M88.69,55.47c-1.72,6.41-3.9,6.41-5.62,0,1.72,6.41-.18,7.5-4.87,2.81,4.69,4.69,3.6,6.58-2.81,4.87,6.41,1.72,6.41,3.9,0,5.62,6.41-1.72,7.5,.18,2.81,4.87,4.69-4.69,6.58-3.6,4.87,2.81,1.72-6.41,3.9-6.41,5.62,0-1.72-6.41,.18-7.5,4.87-2.81-4.69-4.69-3.6-6.58,2.81-4.87-6.41-1.72-6.41-3.9,0-5.62-6.41,1.72-7.5-.18-2.81-4.87-4.69,4.69-6.58,3.6-4.87-2.81Z"/>
  </g>
</svg>